<?xml version="1.0" encoding="iso-8859-1"?>
<!-- Uploaded to: SVG Repo, www.svgrepo.com, Generator: SVG Repo Mixer Tools -->
<svg version="1.1" id="Layer_1" xmlns="http://www.w3.org/2000/svg" xmlns:xlink="http://www.w3.org/1999/xlink" 
	 viewBox="0 0 512 512" xml:space="preserve">
<rect x="236.53" y="60.135" style="fill:#B27214;" width="38.952" height="254.466"/>
<rect x="236.53" y="63.643" style="fill:#995C0D;" width="19.482" height="247.448"/>
<path style="fill:#CCCCCC;" d="M340.404,336.009v89.108c0,9.23-4.032,17.995-11.037,24.001L255.994,512l-73.36-62.882
	c-7.005-6.006-11.037-14.772-11.037-24.001v-89.108H340.404z"/>
<path style="fill:#2BA5F7;" d="M184.584,15.743V50.75c0,16.028,12.993,29.021,29.021,29.021h22.919h38.952h22.919
	c16.028,0,29.021-12.993,29.021-29.021V15.743C327.416,7.048,320.367,0,311.673,0H200.327C191.632,0,184.584,7.048,184.584,15.743z
	 M290.319,48.812h-68.639c-4.926,0-8.92-3.994-8.92-8.92s3.994-8.92,8.92-8.92h68.639c4.926,0,8.92,3.994,8.92,8.92
	S295.246,48.812,290.319,48.812z"/>
<path style="fill:#2197D8;" d="M212.336,50.75V0h-12.01c-8.694,0-15.742,7.048-15.742,15.743V50.75
	c0,16.028,12.993,29.021,29.021,29.021h22.919h4.832C225.324,79.771,212.336,66.783,212.336,50.75z"/>
<path style="fill:#B3B3B3;" d="M275.476,320.928v-25.964h-38.952v25.964h-64.928v29.687h64.928v16.627
	c0,10.348,8.385,18.733,18.733,18.733h1.487c10.348,0,18.733-8.385,18.733-18.733v-16.627h64.928v-29.687H275.476z"/>
</svg>